<?xml version="1.0" encoding="utf-8"?>
<svg viewBox="0.543 0 499.457 82.972" xmlns="http://www.w3.org/2000/svg">
  <path d="M 627.224 266.422 C 622.007 266.422 617.778 262.099 617.778 256.767 C 617.778 251.434 622.007 247.112 627.225 247.112 C 632.442 247.112 636.671 251.434 636.671 256.767 C 636.671 262.099 632.442 266.422 627.225 266.422 Z M 636.7 267.646 C 636.7 268.53 638.216 271.014 640.072 271.014 L 641.275 271.014 C 641.741 271.014 642.122 270.632 642.122 270.167 L 642.122 243.744 L 642.118 243.744 C 642.093 243.295 641.724 242.944 641.275 242.942 L 637.549 242.942 C 637.098 242.942 636.73 243.299 636.705 243.744 L 636.7 243.744 L 636.7 245.891 C 634.419 243.08 630.819 241.913 627.21 241.913 C 619.007 241.913 612.357 248.563 612.357 256.767 C 612.357 264.971 619.007 271.621 627.21 271.621 C 630.819 271.621 634.753 270.221 636.7 267.643 L 636.7 267.647 Z M 651.024 263.862 C 653.511 265.585 656.226 266.422 658.834 266.422 C 661.32 266.422 663.889 265.132 663.889 262.89 C 663.889 259.897 658.29 259.43 654.773 258.235 C 651.254 257.039 648.223 254.567 648.223 250.565 C 648.223 244.441 653.681 241.912 658.774 241.912 C 662.001 241.912 665.33 242.976 667.489 244.501 C 668.233 245.063 667.78 245.711 667.78 245.711 L 665.719 248.654 C 665.488 248.985 665.008 249.25 664.501 248.913 C 663.113 247.995 661.567 247.111 658.773 247.111 C 655.316 247.111 653.795 248.546 653.795 250.324 C 653.795 252.458 656.228 253.129 659.077 253.856 C 664.043 255.193 669.46 256.803 669.46 262.891 C 669.46 268.287 664.413 271.621 658.834 271.621 C 654.607 271.621 651.007 270.416 647.989 268.201 C 647.36 267.572 647.8 266.987 647.8 266.987 L 649.85 264.06 C 650.267 263.511 650.793 263.703 651.024 263.862 Z M 697.401 267.647 C 697.401 268.53 698.915 271.014 700.771 271.014 L 701.974 271.014 C 702.44 271.014 702.822 270.632 702.822 270.167 L 702.822 243.744 L 702.817 243.744 C 702.793 243.295 702.423 242.944 701.974 242.942 L 698.249 242.942 C 697.797 242.942 697.43 243.299 697.405 243.744 L 697.401 243.744 L 697.401 245.891 C 695.118 243.08 691.519 241.913 687.91 241.913 C 679.707 241.913 673.056 248.563 673.056 256.767 C 673.056 264.97 679.707 271.621 687.91 271.621 C 691.519 271.621 695.452 270.22 697.401 267.642 L 697.401 267.647 Z M 687.925 266.422 C 682.706 266.422 678.477 262.099 678.477 256.767 C 678.477 251.434 682.706 247.112 687.925 247.112 C 693.141 247.112 697.371 251.434 697.371 256.767 C 697.371 262.099 693.141 266.422 687.925 266.422 Z M 736.202 268.554 L 736.201 254.883 C 736.201 247.175 731.338 241.976 723.584 241.976 C 719.884 241.976 716.856 244.116 715.784 245.955 L 715.784 245.929 L 715.778 245.95 C 715.775 244.09 714.266 243.006 712.406 243.006 L 711.21 243.006 C 710.743 243.006 710.362 243.388 710.362 243.855 L 710.362 270.278 L 710.367 270.278 C 710.391 270.724 710.76 271.08 711.21 271.08 L 714.935 271.08 C 714.992 271.08 715.049 271.074 715.102 271.063 C 715.127 271.058 715.15 271.048 715.174 271.041 C 715.203 271.033 715.231 271.026 715.257 271.015 C 715.291 271.002 715.321 270.983 715.351 270.966 C 715.366 270.956 715.383 270.95 715.398 270.941 C 715.434 270.915 715.469 270.888 715.502 270.858 C 715.507 270.853 715.513 270.849 715.519 270.844 C 715.675 270.695 715.768 270.492 715.778 270.278 L 715.784 270.278 L 715.784 254.671 C 715.784 250.531 719.14 247.175 723.279 247.175 C 727.418 247.175 730.775 250.531 730.775 254.671 L 730.778 267.717 L 730.778 267.712 C 730.778 267.724 730.781 267.737 730.781 267.748 L 730.781 270.278 L 730.786 270.278 C 730.811 270.724 731.178 271.08 731.629 271.08 L 735.354 271.08 C 735.412 271.08 735.467 271.074 735.522 271.063 C 735.544 271.059 735.564 271.049 735.586 271.045 C 735.616 271.035 735.647 271.027 735.677 271.015 C 735.707 271.003 735.735 270.985 735.763 270.969 C 735.781 270.96 735.8 270.952 735.817 270.941 C 735.851 270.918 735.883 270.891 735.913 270.864 C 735.921 270.857 735.93 270.851 735.939 270.843 C 735.973 270.81 736.004 270.773 736.033 270.735 C 736.131 270.602 736.188 270.444 736.197 270.281 L 736.198 270.278 L 736.202 270.278 L 736.202 268.554 Z M 765.257 267.647 C 765.257 268.53 766.77 271.014 768.627 271.014 L 769.83 271.014 C 770.296 271.014 770.678 270.632 770.678 270.167 L 770.678 243.744 L 770.674 243.744 C 770.648 243.295 770.279 242.944 769.83 242.942 L 766.105 242.942 C 765.656 242.944 765.286 243.295 765.261 243.744 L 765.257 243.744 L 765.257 245.891 C 762.973 243.08 759.374 241.913 755.765 241.913 C 747.562 241.913 740.912 248.563 740.912 256.767 C 740.912 264.97 747.562 271.621 755.765 271.621 C 759.374 271.621 763.308 270.22 765.255 267.642 L 765.257 267.647 Z M 755.781 266.422 C 750.564 266.422 746.335 262.099 746.335 256.767 C 746.335 251.434 750.564 247.112 755.781 247.112 C 760.996 247.112 765.225 251.434 765.225 256.767 C 765.225 262.099 760.996 266.422 755.781 266.422 Z" style="fill: rgb(153, 153, 153);"/>
  <path d="M 712.881 298.695 C 708.578 298.695 705.091 302.183 705.091 306.485 C 705.091 310.786 708.578 314.275 712.881 314.275 C 717.182 314.275 720.671 310.786 720.671 306.485 C 720.671 302.183 717.182 298.695 712.881 298.695 Z M 692.643 298.695 C 688.341 298.696 684.853 302.183 684.853 306.485 C 684.853 310.786 688.341 314.274 692.643 314.274 C 696.946 314.274 700.432 310.786 700.432 306.485 C 700.432 302.183 696.946 298.695 692.642 298.695 Z M 710.551 288.959 C 710.551 293.26 707.064 296.748 702.763 296.748 C 698.46 296.748 694.972 293.26 694.972 288.959 C 694.972 284.657 698.46 281.169 702.763 281.169 C 707.064 281.169 710.551 284.657 710.551 288.959 Z" style="fill: rgb(153, 153, 153);"/>
  <path d="M 140.42 66.613 C 127.341 66.613 116.738 55.775 116.738 42.407 C 116.738 29.037 127.341 18.201 140.423 18.201 C 153.502 18.201 164.105 29.037 164.105 42.407 C 164.105 55.775 153.502 66.613 140.423 66.613 Z M 164.177 69.682 C 164.177 71.898 167.978 78.125 172.631 78.125 L 175.647 78.125 C 176.816 78.125 177.771 77.168 177.771 76.002 L 177.771 9.757 L 177.761 9.757 C 177.698 8.632 176.773 7.752 175.647 7.747 L 166.306 7.747 C 165.175 7.747 164.253 8.642 164.19 9.757 L 164.177 9.757 L 164.177 15.14 C 158.459 8.093 149.433 5.167 140.385 5.167 C 119.82 5.167 103.148 21.839 103.148 42.407 C 103.148 62.975 119.82 79.647 140.385 79.647 C 149.433 79.647 159.296 76.137 164.177 69.674 L 164.177 69.684 Z M 200.089 60.195 C 206.324 64.514 213.131 66.613 219.669 66.613 C 225.902 66.613 232.342 63.379 232.342 57.758 C 232.342 50.254 218.305 49.083 209.488 46.087 C 200.665 43.089 193.067 36.891 193.067 26.858 C 193.067 11.505 206.75 5.164 219.519 5.164 C 227.609 5.164 235.955 7.832 241.368 11.655 C 243.233 13.064 242.098 14.689 242.098 14.689 L 236.93 22.067 C 236.351 22.897 235.148 23.561 233.877 22.716 C 230.397 20.415 226.521 18.199 219.516 18.199 C 210.849 18.199 207.036 21.796 207.036 26.254 C 207.036 31.604 213.136 33.286 220.278 35.109 C 232.729 38.461 246.309 42.497 246.309 57.76 C 246.309 71.289 233.656 79.647 219.669 79.647 C 209.072 79.647 200.046 76.626 192.48 71.073 C 190.903 69.496 192.006 68.029 192.006 68.029 L 197.146 60.691 C 198.191 59.315 199.51 59.796 200.089 60.195 Z M 316.36 69.684 C 316.36 71.898 320.155 78.125 324.809 78.125 L 327.825 78.125 C 328.993 78.125 329.951 77.168 329.951 76.002 L 329.951 9.757 L 329.938 9.757 C 329.878 8.632 328.95 7.752 327.825 7.747 L 318.486 7.747 C 317.353 7.747 316.432 8.642 316.37 9.757 L 316.36 9.757 L 316.36 15.14 C 310.636 8.093 301.613 5.167 292.565 5.167 C 271.999 5.167 255.325 21.839 255.325 42.407 C 255.325 62.973 271.999 79.647 292.565 79.647 C 301.613 79.647 311.473 76.135 316.36 69.672 L 316.36 69.684 Z M 292.603 66.613 C 279.518 66.613 268.916 55.775 268.916 42.407 C 268.916 29.037 279.518 18.201 292.603 18.201 C 305.68 18.201 316.285 29.037 316.285 42.407 C 316.285 55.775 305.68 66.613 292.603 66.613 Z M 413.637 71.958 L 413.635 37.684 C 413.635 18.359 401.443 5.325 382.003 5.325 C 372.726 5.325 365.135 10.69 362.447 15.3 L 362.447 15.235 L 362.432 15.288 C 362.425 10.625 358.642 7.907 353.979 7.907 L 350.98 7.907 C 349.809 7.907 348.854 8.865 348.854 10.036 L 348.854 76.28 L 348.867 76.28 C 348.927 77.398 349.852 78.291 350.98 78.291 L 360.319 78.291 C 360.462 78.291 360.605 78.276 360.738 78.248 C 360.8 78.236 360.858 78.211 360.918 78.193 C 360.991 78.173 361.061 78.156 361.126 78.128 C 361.211 78.095 361.287 78.048 361.362 78.005 C 361.399 77.98 361.442 77.965 361.48 77.942 C 361.57 77.877 361.658 77.81 361.74 77.734 C 361.753 77.722 361.768 77.712 361.783 77.699 C 362.174 77.326 362.407 76.817 362.432 76.28 L 362.447 76.28 L 362.447 37.152 C 362.447 26.773 370.861 18.359 381.238 18.359 C 391.615 18.359 400.031 26.773 400.031 37.152 L 400.039 69.86 L 400.039 69.847 C 400.039 69.877 400.046 69.91 400.046 69.937 L 400.046 76.28 L 400.059 76.28 C 400.121 77.398 401.041 78.291 402.172 78.291 L 411.511 78.291 C 411.656 78.291 411.794 78.276 411.932 78.248 C 411.987 78.238 412.037 78.213 412.093 78.203 C 412.168 78.178 412.246 78.158 412.321 78.128 C 412.396 78.098 412.466 78.053 412.536 78.013 C 412.582 77.99 412.629 77.97 412.672 77.942 C 412.757 77.885 412.837 77.817 412.912 77.749 C 412.933 77.732 412.955 77.717 412.978 77.697 C 413.063 77.614 413.141 77.521 413.213 77.426 C 413.459 77.093 413.602 76.696 413.624 76.288 L 413.627 76.28 L 413.637 76.28 L 413.637 71.958 Z M 486.48 69.684 C 486.48 71.898 490.273 78.125 494.929 78.125 L 497.945 78.125 C 499.113 78.125 500.071 77.168 500.071 76.002 L 500.071 9.757 L 500.061 9.757 C 499.996 8.632 499.071 7.752 497.945 7.747 L 488.606 7.747 C 487.481 7.752 486.553 8.632 486.49 9.757 L 486.48 9.757 L 486.48 15.14 C 480.754 8.093 471.731 5.167 462.683 5.167 C 442.117 5.167 425.445 21.839 425.445 42.407 C 425.445 62.973 442.117 79.647 462.683 79.647 C 471.731 79.647 481.594 76.135 486.475 69.672 L 486.48 69.684 Z M 462.723 66.613 C 449.644 66.613 439.041 55.775 439.041 42.407 C 439.041 29.037 449.644 18.201 462.723 18.201 C 475.798 18.201 486.4 29.037 486.4 42.407 C 486.4 55.775 475.798 66.613 462.723 66.613 Z" style="fill: rgb(153, 153, 153);"/>
  <path d="M 69.655 44.197 C 58.867 44.197 50.125 52.942 50.125 63.727 C 50.125 74.51 58.867 83.257 69.655 83.257 C 80.438 83.257 89.186 74.51 89.186 63.727 C 89.186 52.942 80.438 44.197 69.655 44.197 Z M 18.917 44.197 C 8.132 44.2 -0.613 52.942 -0.613 63.727 C -0.613 74.51 8.132 83.255 18.917 83.255 C 29.705 83.255 38.445 74.51 38.445 63.727 C 38.445 52.942 29.705 44.197 18.915 44.197 Z M 63.814 19.788 C 63.814 30.571 55.072 39.316 44.289 39.316 C 33.501 39.316 24.756 30.571 24.756 19.788 C 24.756 9.003 33.501 0.258 44.289 0.258 C 55.072 0.258 63.814 9.003 63.814 19.788 Z" style="fill: rgb(153, 153, 153);"/>
</svg>